<?xml version="1.0" encoding="utf-8"?>
<svg xmlns="http://www.w3.org/2000/svg" viewBox="0 0 468.277 101.692" xmlns:bx="https://boxy-svg.com" width="468.277px" height="101.692px"><defs><bx:export><bx:file format="svg"/></bx:export></defs><g id="SvgjsG6466" featurekey="sloganFeature-0" transform="matrix(0.715081, 0, 0, 0.715081, 29.84755, 84.056695)" fill="#f9f8eb" style=""><path d="M4.38 14.02 l0 5.98 l-2.18 0 l0 -14.92 l10.5 0 l0 2.2 l-8.32 0 l0 4.52 q0.62 -0.36 1.38 -0.48 q0.56 -0.1 1.44 -0.1 l3.26 0 l0 2.22 l-3.26 0 q-0.82 0 -1.44 0.1 q-0.76 0.14 -1.38 0.48 z M28.039 20 l-10.46 0 l0 -14.92 l2.18 0 l0 12.74 l8.28 0 l0 2.18 z M34.298 14.02 l0 3.8 l9.2 0 l0 2.18 l-11.38 0 l0 -14.92 l10.5 0 l0 2.2 l-8.32 0 l0 4.52 q0.62 -0.36 1.38 -0.48 q0.56 -0.1 1.44 -0.1 l3.26 0 l0 2.22 l-3.26 0 q-0.82 0 -1.44 0.1 q-0.76 0.14 -1.38 0.48 z M50.657000000000004 14.02 l0 3.8 l9.2 0 l0 2.18 l-11.38 0 l0 -14.92 l10.5 0 l0 2.2 l-8.32 0 l0 4.52 q0.62 -0.36 1.38 -0.48 q0.56 -0.1 1.44 -0.1 l3.26 0 l0 2.22 l-3.26 0 q-0.82 0 -1.44 0.1 q-0.76 0.14 -1.38 0.48 z M75.936 7.279999999999999 l-5.26 0 l0 12.72 l-2.12 0 l0 -12.72 l-5.32 0 l0 -2.2 l12.7 0 l0 2.2 z M98.214 7.279999999999999 l-5.26 0 l0 12.72 l-2.12 0 l0 -12.72 l-5.32 0 l0 -2.2 l12.7 0 l0 2.2 z M104.673 7.26 l0 4.96 q0.62 -0.36 1.38 -0.48 q0.56 -0.1 1.44 -0.1 l2.84 0 q1.18 0 1.84 -0.54 q0.7 -0.58 0.7 -1.74 q0 -1.1 -0.74 -1.64 q-0.64 -0.46 -1.8 -0.46 l-5.66 0 z M111.05300000000001 17.64 l-1.82 -3.82 l-1.74 0 q-0.82 0 -1.44 0.1 q-0.76 0.14 -1.38 0.48 l0 5.6 l-2.18 0 l0 -14.92 l7.84 0 q1.38 0 2.44 0.52 t1.64 1.48 q0.62 1.02 0.62 2.4 q0 1.68 -0.9 2.76 t-2.54 1.5 l1.16 2.38 q0.5 0.74 0.78 1.04 q0.34 0.38 0.65 0.51 t0.81 0.13 l0.22 0 l0.48 -0.02 l0 2.22 q-1.16 0 -1.72 -0.08 q-0.94 -0.16 -1.6 -0.62 q-0.78 -0.56 -1.32 -1.66 z M125.432 6.66 l-0.82 -1.84 l2.4 0 l7.18 15.18 l-2.44 0 l-0.98 -2.18 l-4.54 0 q-1.28 0 -2.3 0.24 q-0.9 0.22 -1.5 0.58 q-0.54 0.32 -0.72 0.66 l-0.38 0.7 l-2.36 0 z M127.03200000000001 15.620000000000001 l2.76 0 l-3.26 -6.3 l-3.3 7.14 q0.44 -0.38 1.34 -0.6 q1.02 -0.24 2.46 -0.24 z M151.251 7 l-1.4 1.64 q-0.82 -0.84 -1.96 -1.32 t-2.4 -0.48 q-1.64 0 -2.99 0.74 t-2.11 2.02 q-0.78 1.34 -0.78 2.98 q0 1.56 0.84 2.88 q0.8 1.24 2.15 1.97 t2.91 0.73 q1.44 0 2.68 -0.62 t2.06 -1.72 l1.34 1.82 q-1.14 1.28 -2.73 1.99 t-3.37 0.71 q-2.22 0 -4.08 -1.08 q-1.82 -1.04 -2.86 -2.86 q-1.08 -1.86 -1.08 -4.08 q0 -2.14 1.14 -3.94 q1.08 -1.72 2.93 -2.73 t3.97 -1.01 q1.66 0 3.16 0.64 q1.46 0.6 2.58 1.72 z M162.47000000000003 14.02 l-4.02 5.98 l-2.18 0 l0 -14.92 l2.18 0 l0 11.14 l7.58 -11.14 l2.62 0 l-4.9 7.02 l2.68 4.02 q0.64 0.96 1.26 1.36 q0.5 0.32 1.06 0.32 l0.62 -0.02 l0 2.22 l-0.4 0 q-1 0.02 -1.46 -0.08 q-0.74 -0.12 -1.36 -0.6 q-0.7 -0.56 -1.42 -1.68 z M176.42900000000003 14.02 l0 3.8 l9.2 0 l0 2.18 l-11.38 0 l0 -14.92 l10.5 0 l0 2.2 l-8.32 0 l0 4.52 q0.62 -0.36 1.38 -0.48 q0.56 -0.1 1.44 -0.1 l3.26 0 l0 2.22 l-3.26 0 q-0.82 0 -1.44 0.1 q-0.76 0.14 -1.38 0.48 z M192.78800000000004 7.26 l0 4.96 q0.62 -0.36 1.38 -0.48 q0.56 -0.1 1.44 -0.1 l2.84 0 q1.18 0 1.84 -0.54 q0.7 -0.58 0.7 -1.74 q0 -1.1 -0.74 -1.64 q-0.64 -0.46 -1.8 -0.46 l-5.66 0 z M199.16800000000003 17.64 l-1.82 -3.82 l-1.74 0 q-0.82 0 -1.44 0.1 q-0.76 0.14 -1.38 0.48 l0 5.6 l-2.18 0 l0 -14.92 l7.84 0 q1.38 0 2.44 0.52 t1.64 1.48 q0.62 1.02 0.62 2.4 q0 1.68 -0.9 2.76 t-2.54 1.5 l1.16 2.38 q0.5 0.74 0.78 1.04 q0.34 0.38 0.65 0.51 t0.81 0.13 l0.22 0 l0.48 -0.02 l0 2.22 q-1.16 0 -1.72 -0.08 q-0.94 -0.16 -1.6 -0.62 q-0.78 -0.56 -1.32 -1.66 z M220.44600000000005 6.66 l-0.82 -1.84 l2.4 0 l7.18 15.18 l-2.44 0 l-0.98 -2.18 l-4.54 0 q-1.28 0 -2.3 0.24 q-0.9 0.22 -1.5 0.58 q-0.54 0.32 -0.72 0.66 l-0.38 0.7 l-2.36 0 z M222.04600000000005 15.620000000000001 l2.76 0 l-3.26 -6.3 l-3.3 7.14 q0.44 -0.38 1.34 -0.6 q1.02 -0.24 2.46 -0.24 z M233.925 7.18 l-1.74 -2.1 l2.82 0 l9.58 11.4 l0 -11.4 l2.2 0 l0 14.92 l-2.16 0 l-8.56 -10.26 l0 10.26 l-2.14 0 l0 -12.82 z M255.64400000000003 7.279999999999999 l0 10.54 l3.38 0 q1.4 0 2.52 -0.72 q1.06 -0.7 1.66 -1.88 t0.6 -2.58 q0 -1.46 -0.57 -2.68 t-1.63 -1.94 q-1.14 -0.74 -2.62 -0.74 l-3.34 0 z M252.32400000000004 7.279999999999999 l-0.96 -2.2 l7.6 0 q1.98 0 3.62 1.02 q1.58 0.98 2.5 2.68 t0.92 3.7 q0 1.5 -0.59 2.97 t-1.63 2.57 q-1 1.08 -2.14 1.54 q-1.1 0.44 -2.62 0.44 l-5.52 0 l0 -12.72 l-1.18 0 z M290.52200000000005 9.74 l-5.1 6.1 l-5.06 -6.1 l0 10.26 l-2.14 0 l0 -12.82 l-1.74 -2.1 l2.82 0 l6.1 7.32 l6.18 -7.32 l2.82 0 l-1.74 2.1 l0 12.82 l-2.14 0 l0 -10.26 z M303.6410000000001 6.66 l-0.82 -1.84 l2.4 0 l7.18 15.18 l-2.44 0 l-0.98 -2.18 l-4.54 0 q-1.28 0 -2.3 0.24 q-0.9 0.22 -1.5 0.58 q-0.54 0.32 -0.72 0.66 l-0.38 0.7 l-2.36 0 z M305.24100000000004 15.620000000000001 l2.76 0 l-3.26 -6.3 l-3.3 7.14 q0.44 -0.38 1.34 -0.6 q1.02 -0.24 2.46 -0.24 z M318.82000000000005 20 l-2.14 0 l0 -14.92 l2.14 0 l0 14.92 z M325.13900000000007 7.18 l-1.74 -2.1 l2.82 0 l9.58 11.4 l0 -11.4 l2.2 0 l0 14.92 l-2.16 0 l-8.56 -10.26 l0 10.26 l-2.14 0 l0 -12.82 z M354.97800000000007 7.279999999999999 l-5.26 0 l0 12.72 l-2.12 0 l0 -12.72 l-5.32 0 l0 -2.2 l12.7 0 l0 2.2 z M361.43700000000007 14.02 l0 3.8 l9.2 0 l0 2.18 l-11.38 0 l0 -14.92 l10.5 0 l0 2.2 l-8.32 0 l0 4.52 q0.62 -0.36 1.38 -0.48 q0.56 -0.1 1.44 -0.1 l3.26 0 l0 2.22 l-3.26 0 q-0.82 0 -1.44 0.1 q-0.76 0.14 -1.38 0.48 z M376.05600000000004 7.18 l-1.74 -2.1 l2.82 0 l9.58 11.4 l0 -11.4 l2.2 0 l0 14.92 l-2.16 0 l-8.56 -10.26 l0 10.26 l-2.14 0 l0 -12.82 z M399.45500000000004 6.66 l-0.82 -1.84 l2.4 0 l7.18 15.18 l-2.44 0 l-0.98 -2.18 l-4.54 0 q-1.28 0 -2.3 0.24 q-0.9 0.22 -1.5 0.58 q-0.54 0.32 -0.72 0.66 l-0.38 0.7 l-2.36 0 z M401.055 15.620000000000001 l2.76 0 l-3.26 -6.3 l-3.3 7.14 q0.44 -0.38 1.34 -0.6 q1.02 -0.24 2.46 -0.24 z M412.934 7.18 l-1.74 -2.1 l2.82 0 l9.58 11.4 l0 -11.4 l2.2 0 l0 14.92 l-2.16 0 l-8.56 -10.26 l0 10.26 l-2.14 0 l0 -12.82 z M444.45300000000003 7 l-1.4 1.64 q-0.82 -0.84 -1.96 -1.32 t-2.4 -0.48 q-1.64 0 -2.99 0.74 t-2.11 2.02 q-0.78 1.34 -0.78 2.98 q0 1.56 0.84 2.88 q0.8 1.24 2.15 1.97 t2.91 0.73 q1.44 0 2.68 -0.62 t2.06 -1.72 l1.34 1.82 q-1.14 1.28 -2.73 1.99 t-3.37 0.71 q-2.22 0 -4.08 -1.08 q-1.82 -1.04 -2.86 -2.86 q-1.08 -1.86 -1.08 -4.08 q0 -2.14 1.14 -3.94 q1.08 -1.72 2.93 -2.73 t3.97 -1.01 q1.66 0 3.16 0.64 q1.46 0.6 2.58 1.72 z M451.652 14.02 l0 3.8 l9.2 0 l0 2.18 l-11.38 0 l0 -14.92 l10.5 0 l0 2.2 l-8.32 0 l0 4.52 q0.62 -0.36 1.38 -0.48 q0.56 -0.1 1.44 -0.1 l3.26 0 l0 2.22 l-3.26 0 q-0.82 0 -1.44 0.1 q-0.76 0.14 -1.38 0.48 z M484.33 15.46 q0 1.46 -0.88 2.6 q-0.86 1.08 -2.37 1.68 t-3.41 0.6 q-1.74 0 -3.38 -0.81 t-2.76 -2.25 l1.56 -1.46 q1.94 2.34 4.58 2.34 q1.16 0 2.12 -0.28 q1.06 -0.32 1.64 -0.9 q0.66 -0.64 0.66 -1.52 q0 -1.06 -0.66 -1.6 q-0.56 -0.46 -1.66 -0.6 q-0.64 -0.08 -2.1 -0.08 q-2.68 0 -4.09 -0.98 t-1.41 -2.88 q0 -1.2 0.71 -2.28 t1.95 -1.72 q1.28 -0.68 2.84 -0.68 q1.76 0 3.18 0.54 q1.52 0.58 2.82 1.82 l-1.36 1.6 q-1.22 -0.98 -2.22 -1.37 t-2.42 -0.39 q-0.82 0 -1.53 0.34 t-1.13 0.91 t-0.42 1.21 q0 1.72 3.18 1.72 q2.54 0 4.02 0.52 q1.4 0.5 2 1.52 q0.54 0.9 0.54 2.4 z M493.94899999999996 11.64 q1.34 -1.4 2.42 -3.12 t1.72 -3.44 l2.5 0 q-1.02 2.38 -2.48 4.56 q-1.32 1.98 -3.08 3.9 l0 6.46 l-2.16 0 l0 -6.46 q-1.76 -1.92 -3.08 -3.9 q-1.46 -2.18 -2.48 -4.56 l2.5 0 q0.64 1.72 1.72 3.44 t2.42 3.12 z M516.3679999999999 15.46 q0 1.46 -0.88 2.6 q-0.86 1.08 -2.37 1.68 t-3.41 0.6 q-1.74 0 -3.38 -0.81 t-2.76 -2.25 l1.56 -1.46 q1.94 2.34 4.58 2.34 q1.16 0 2.12 -0.28 q1.06 -0.32 1.64 -0.9 q0.66 -0.64 0.66 -1.52 q0 -1.06 -0.66 -1.6 q-0.56 -0.46 -1.66 -0.6 q-0.64 -0.08 -2.1 -0.08 q-2.68 0 -4.09 -0.98 t-1.41 -2.88 q0 -1.2 0.71 -2.28 t1.95 -1.72 q1.28 -0.68 2.84 -0.68 q1.76 0 3.18 0.54 q1.52 0.58 2.82 1.82 l-1.36 1.6 q-1.22 -0.98 -2.22 -1.37 t-2.42 -0.39 q-0.82 0 -1.53 0.34 t-1.13 0.91 t-0.42 1.21 q0 1.72 3.18 1.72 q2.54 0 4.02 0.52 q1.4 0.5 2 1.52 q0.54 0.9 0.54 2.4 z M532.1469999999999 7.279999999999999 l-5.26 0 l0 12.72 l-2.12 0 l0 -12.72 l-5.32 0 l0 -2.2 l12.7 0 l0 2.2 z M538.606 14.02 l0 3.8 l9.2 0 l0 2.18 l-11.38 0 l0 -14.92 l10.5 0 l0 2.2 l-8.32 0 l0 4.52 q0.62 -0.36 1.38 -0.48 q0.56 -0.1 1.44 -0.1 l3.26 0 l0 2.22 l-3.26 0 q-0.82 0 -1.44 0.1 q-0.76 0.14 -1.38 0.48 z M565.5250000000001 9.74 l-5.1 6.1 l-5.06 -6.1 l0 10.26 l-2.14 0 l0 -12.82 l-1.74 -2.1 l2.82 0 l6.1 7.32 l6.18 -7.32 l2.82 0 l-1.74 2.1 l0 12.82 l-2.14 0 l0 -10.26 z"/></g><g id="SvgjsG6467" featurekey="nameLeftFeature-0" transform="matrix(1.207181, 0, 0, 1.207181, 3.350992, 7.21988)" fill="#f9f8eb" style=""><path d="M24.4 33.92 q0.6 0 1 0.42 t0.4 1.02 l0 2.92 q0 0.56 -0.4 0.98 t-1 0.42 l-19.76 0 q-0.56 0 -0.98 -0.42 t-0.42 -0.98 l0 -2.92 q0 -0.6 0.42 -1.02 t0.98 -0.42 l19.76 0 z M4.64 27.72 q-0.56 0 -0.98 -0.42 t-0.42 -0.98 l0 -3 q0 -0.56 0.42 -0.98 t0.98 -0.42 l17.96 0 q0.6 0 1.02 0.42 t0.42 0.98 l0 3 q0 0.56 -0.42 0.98 t-1.02 0.42 l-17.96 0 z M24.4 10 q0.6 0 1 0.42 t0.4 0.98 l0 2.92 q0 0.6 -0.4 1.02 t-1 0.42 l-19.76 0 q-0.56 0 -0.98 -0.42 t-0.42 -1.02 l0 -2.92 q0 -0.56 0.42 -0.98 t0.98 -0.42 l19.76 0 z M57.82 28.72 q-0.24 -0.24 -0.34 -0.58 t-0.02 -0.66 q0.2 -1.28 0.2 -2.28 q0 -4.12 -2.44 -6.72 q-2.56 -2.68 -6.76 -2.68 t-6.76 2.68 q-2.44 2.6 -2.44 6.72 t2.44 6.72 q2.56 2.68 6.76 2.68 q1.68 0 3 -0.4 l-2.28 -2.28 q-0.4 -0.48 -0.4 -1 t0.4 -1 l2.16 -2.16 q0.44 -0.44 1.02 -0.44 t0.98 0.44 l8.68 8.68 q0.44 0.4 0.44 0.98 t-0.44 1.02 l-2.16 2.16 q-0.36 0.4 -0.98 0.4 t-1.02 -0.4 l-1.96 -2 q-3.28 1.8 -7.44 1.8 q-6.64 0 -10.92 -4.44 q-4.16 -4.36 -4.16 -10.76 t4.16 -10.76 q4.32 -4.44 10.94 -4.44 t10.9 4.48 q4.16 4.28 4.16 10.72 q0 2.84 -0.92 5.48 q-0.12 0.36 -0.38 0.6 t-0.62 0.28 q-0.76 0.2 -1.32 -0.36 z M82.68 34.12 q0.48 0.16 0.76 0.54 t0.28 0.86 l0 3.08 q0 0.64 -0.52 1.08 q-0.4 0.32 -0.88 0.32 q-0.2 0 -0.28 -0.04 q-3.72 -0.72 -6.4 -3.44 q-3.6 -3.68 -3.6 -9.68 l0 -15.4 q0 -0.6 0.42 -1.02 t0.98 -0.42 l3.08 0 q0.6 0 1.02 0.42 t0.42 1.02 l0 15.48 q0 3.8 2.16 5.8 q1.12 1.04 2.56 1.4 z M96.48 10 q0.6 0 1.02 0.42 t0.42 1.02 l0 15.4 q0 6 -3.6 9.68 q-2.68 2.72 -6.4 3.44 q-0.08 0.04 -0.28 0.04 q-0.48 0 -0.88 -0.32 q-0.52 -0.4 -0.52 -1.12 l0 -3.08 q0 -0.44 0.28 -0.82 t0.76 -0.54 q1.52 -0.44 2.56 -1.4 q2.16 -1.92 2.16 -5.8 l0 -15.48 q0 -0.6 0.42 -1.02 t1.02 -0.42 l3.04 0 z M112.94 21.88 q0.6 0 1 0.42 t0.4 1.02 l0 14.96 q0 0.56 -0.4 0.98 t-1 0.42 l-3.04 0 q-0.56 0 -0.98 -0.42 t-0.42 -0.98 l0 -14.96 q0 -0.6 0.42 -1.02 t0.98 -0.42 l3.04 0 z M112.94 10 q0.6 0 1 0.42 t0.4 0.98 l0 7.4 q0 0.6 -0.4 1.02 t-1 0.42 l-3.04 0 q-0.56 0 -0.98 -0.42 t-0.42 -1.02 l0 -7.4 q0 -0.56 0.42 -0.98 t0.98 -0.42 l3.04 0 z M138.72 10 q4.76 0 7.68 2.74 t2.92 7.3 t-2.88 7.28 t-7.72 2.72 l-7.64 0 l0 8.16 q0 0.56 -0.42 0.98 t-0.98 0.42 l-3.04 0 q-0.56 0 -0.98 -0.42 t-0.42 -0.98 l0 -12.4 q0 -0.56 0.42 -0.98 t0.98 -0.42 l11.84 0 q2.68 0 3.84 -1.16 q1.16 -1.04 1.16 -3.16 t-1.2 -3.26 t-3.8 -1.14 l-11.84 0 q-0.56 0 -0.98 -0.42 t-0.42 -0.98 l0 -2.88 q0 -0.56 0.42 -0.98 t0.98 -0.42 l12.08 0 z"/></g><g id="SvgjsG6468" featurekey="inlineSymbolFeature-0" transform="matrix(0.69444, 0, 0, 0.69444, 202.521411, 2.876438)" fill="#76b39d" style=""><g xmlns="http://www.w3.org/2000/svg"><path d="M61.412,20.748L55.919,1.5H44.522l-5.44,19.229l-0.053,0.021c-1.097,0.418-1.951,0.773-2.693,1.127l-0.435,0.178   l2.479,3.593l0.248-0.054l0.091-0.026c3.632-1.628,7.502-2.455,11.501-2.455c4,0,7.87,0.827,11.58,2.479l0.261,0.057l2.212-3.205   l0.229-0.376l-0.401-0.192C63.369,21.527,62.516,21.168,61.412,20.748z M55.67,19.159c-1.228-0.193-3.349-0.415-5.352-0.424h-0.23   c-1.977,0.009-4.092,0.23-5.34,0.43l-0.226,0.05l3.254-12.748h4.888l3.255,12.748L55.67,19.159z"/><path d="M30.374,25.491l-19.416-4.868l-5.698,9.87l13.933,14.328l-0.009,0.057c-0.187,1.159-0.304,2.075-0.371,2.894l-0.062,0.468   l4.351-0.353l0.078-0.24l0.021-0.092c0.406-3.961,1.626-7.723,3.625-11.188c2.002-3.463,4.65-6.404,7.937-8.788l0.179-0.198   l-1.67-3.519l-0.21-0.389l-0.368,0.255C32.026,24.186,31.29,24.747,30.374,25.491z M26.127,29.671   c-0.781,0.963-2.037,2.688-3.043,4.42l-0.116,0.199c-0.981,1.716-1.845,3.661-2.298,4.838l-0.069,0.223l-9.413-9.193l2.443-4.23   l12.67,3.554L26.127,29.671z"/><path d="M18.963,54.744L5.039,69.123l5.698,9.869l19.374-4.9l0.045,0.035c0.91,0.741,1.645,1.302,2.321,1.767l0.373,0.288   l1.868-3.943l-0.168-0.189l-0.069-0.062c-3.226-2.33-5.874-5.271-7.874-8.733c-2.002-3.466-3.222-7.229-3.644-11.27l-0.083-0.252   l-3.883-0.313l-0.439-0.013l0.035,0.445C18.659,52.66,18.774,53.576,18.963,54.744z M20.459,60.51   c0.444,1.159,1.312,3.106,2.306,4.847l0.116,0.199c0.993,1.707,2.247,3.427,3.041,4.408l0.157,0.172l-12.668,3.555l-2.444-4.23   l9.414-9.196L20.459,60.51z"/><path d="M38.59,79.25l5.491,19.25h11.396l5.441-19.229l0.054-0.021c1.097-0.418,1.949-0.773,2.691-1.127l0.436-0.181l-2.48-3.59   l-0.248,0.054l-0.089,0.026c-3.632,1.628-7.502,2.451-11.503,2.451c-4,0.003-7.868-0.823-11.58-2.478l-0.26-0.054l-2.213,3.205   l-0.229,0.376l0.402,0.189C36.633,78.473,37.484,78.832,38.59,79.25z M44.33,80.838c1.228,0.196,3.349,0.418,5.352,0.427   l0.23-0.003c1.975-0.006,4.092-0.23,5.34-0.427l0.229-0.05l-3.257,12.748h-4.888l-3.255-12.751L44.33,80.838z"/><path d="M69.628,74.506l19.414,4.868l5.696-9.87L80.808,55.179l0.009-0.057c0.187-1.159,0.306-2.075,0.371-2.896l0.062-0.465   l-4.351,0.353l-0.078,0.24l-0.02,0.092c-0.406,3.958-1.628,7.723-3.627,11.188c-1.998,3.463-4.648,6.401-7.937,8.788l-0.179,0.198   l1.67,3.519l0.212,0.386l0.366-0.252C67.974,75.814,68.712,75.253,69.628,74.506z M73.873,70.329   c0.783-0.963,2.035-2.688,3.045-4.42l0.112-0.202c0.984-1.71,1.847-3.658,2.301-4.838l0.069-0.223l9.412,9.193l-2.443,4.233   l-12.67-3.554L73.873,70.329z"/><path d="M81.036,45.253l13.925-14.376l-5.698-9.869l-19.374,4.9l-0.045-0.035c-0.91-0.741-1.644-1.302-2.321-1.767l-0.373-0.288   l-1.869,3.943l0.17,0.189l0.068,0.062c3.226,2.33,5.874,5.271,7.876,8.733c2.001,3.463,3.221,7.229,3.642,11.27l0.083,0.252   l3.883,0.313l0.439,0.009l-0.035-0.441C81.341,47.34,81.227,46.421,81.036,45.253z M79.543,39.49   c-0.444-1.159-1.312-3.106-2.308-4.847l-0.116-0.199c-0.99-1.707-2.244-3.427-3.04-4.411l-0.158-0.172l12.668-3.552l2.442,4.23   l-9.412,9.193L79.543,39.49z"/><path d="M50.008,31.633c-10.131,0-18.379,8.236-18.379,18.366c0,10.131,8.248,18.367,18.379,18.367   c10.124,0,18.363-8.236,18.363-18.367C68.371,39.87,60.132,31.633,50.008,31.633z M50.008,63.717   c-7.569,0-13.727-6.154-13.727-13.718c0-7.56,6.157-13.717,13.727-13.717c7.56,0,13.711,6.157,13.711,13.717   C63.719,57.563,57.567,63.717,50.008,63.717z"/></g></g><g id="SvgjsG6469" featurekey="nameRightFeature-0" transform="matrix(1.250755, 0, 0, 1.250755, 270.488255, 6.784125)" fill="#f9f8eb" style=""><path d="M35.06 22.24 q0.6 0 1.02 0.42 t0.42 1.02 l0 2.96 q0 0.56 -0.42 0.98 t-1.02 0.42 l-13.16 0 l0 10.24 q0 0.56 -0.4 0.98 t-1 0.42 l-3.04 0 q-0.56 0 -0.98 -0.42 t-0.42 -0.98 l0 -14.6 q0 -0.6 0.42 -1.02 t0.98 -0.42 l17.6 0 z M36.86 10 q0.56 0 0.98 0.42 t0.42 0.98 l0 2.92 q0 0.6 -0.42 1.02 t-0.98 0.42 l-19.4 0 q-0.56 0 -0.98 -0.42 t-0.42 -1.02 l0 -2.92 q0 -0.56 0.42 -0.98 t0.98 -0.42 l19.4 0 z M51.32 10 q0.56 0 0.98 0.42 t0.42 0.98 l0 26.8 q0 0.56 -0.42 0.98 t-0.98 0.42 l-3.04 0 q-0.56 0 -0.98 -0.42 t-0.42 -0.98 l0 -26.8 q0 -0.56 0.42 -0.98 t0.98 -0.42 l3.04 0 z M65.92 33.88 q0.6 0 1 0.42 t0.4 0.98 l0 2.92 q0 0.56 -0.4 0.98 t-1 0.42 l-9.32 0 q-0.6 0 -1 -0.42 t-0.4 -0.98 l0 -2.92 q0 -0.56 0.4 -0.98 t1 -0.42 l9.32 0 z M87.22 10.32 q0.48 0.4 0.48 1.08 l0 3 q0 0.52 -0.3 0.9 t-0.82 0.5 q-2.56 0.52 -4.36 2.44 q-2.44 2.56 -2.44 6.66 t2.44 6.7 q1.8 1.88 4.36 2.4 q0.52 0.12 0.82 0.5 t0.3 0.9 l0 3 q0 0.64 -0.48 1.08 q-0.44 0.32 -0.92 0.32 l-0.24 0 q-4.64 -0.76 -7.96 -4.2 q-4.16 -4.28 -4.16 -10.66 t4.16 -10.74 q3.24 -3.36 7.96 -4.16 q0.64 -0.12 1.16 0.28 z M99.78 14.2 q4.16 4.36 4.16 10.74 t-4.16 10.66 q-3.32 3.44 -7.96 4.2 l-0.24 0 q-0.48 0 -0.92 -0.32 q-0.48 -0.44 -0.48 -1.08 l0 -3 q0 -0.52 0.3 -0.9 t0.82 -0.5 q2.56 -0.52 4.36 -2.4 q2.44 -2.6 2.44 -6.7 t-2.44 -6.66 q-1.8 -1.92 -4.36 -2.44 q-0.52 -0.12 -0.82 -0.5 t-0.3 -0.9 l0 -3 q0 -0.68 0.5 -1.08 t1.14 -0.28 q4.72 0.8 7.96 4.16 z M151.35999999999999 10.600000000000001 q0.4 0.56 0.2 1.24 l-8.44 27.08 q-0.12 0.44 -0.5 0.72 t-0.86 0.28 l-3.48 0 q-0.44 0 -0.82 -0.28 t-0.5 -0.68 l-6 -18.56 l-5.96 18.56 q-0.16 0.44 -0.52 0.7 t-0.84 0.26 l-3.48 0 q-0.72 0 -1.16 -0.56 q-0.4 -0.68 -0.16 -1.28 l9.04 -27.12 q0.12 -0.4 0.5 -0.68 t0.82 -0.28 l3.52 0 q0.48 0 0.84 0.28 t0.52 0.72 l5.92 18.4 l5.6 -18.4 q0.16 -0.44 0.54 -0.72 t0.82 -0.28 l3.24 0 q0.76 0 1.16 0.6 z M116.32 11 l2.28 7.48 q0.24 0.68 -0.2 1.26 t-1.16 0.58 l-3.16 0 q-0.48 0 -0.86 -0.28 t-0.5 -0.72 l-2.32 -7.48 q-0.24 -0.68 0.2 -1.26 t1.12 -0.58 l3.24 0 q0.48 0 0.86 0.28 t0.5 0.72 z"/></g></svg>